<?xml version="1.0" standalone="no"?>
<!DOCTYPE svg PUBLIC "-//W3C//DTD SVG 20010904//EN"
 "http://www.w3.org/TR/2001/REC-SVG-20010904/DTD/svg10.dtd">
<svg version="1.0" xmlns="http://www.w3.org/2000/svg"
 width="222.000000pt" height="227.000000pt" viewBox="0 0 222.000000 227.000000"
 preserveAspectRatio="xMidYMid meet">
<metadata>
Created by potrace 1.16, written by Peter Selinger 2001-2019
</metadata>
<g transform="translate(0.000000,227.000000) scale(0.100000,-0.100000)"
fill="#000000" stroke="none">
<path d="M1510 2149 c-966 -261 -1434 -389 -1441 -396 -5 -5 21 -116 57 -248
l65 -240 5 -524 c4 -499 5 -526 25 -570 25 -56 60 -94 119 -129 l45 -27 790 0
c765 0 791 1 830 20 48 24 107 83 131 133 18 34 19 74 22 564 l3 528 -938 2
-938 3 445 119 c976 261 1350 363 1355 368 5 5 -105 430 -124 481 -6 16 -18
27 -28 26 -10 -1 -200 -50 -423 -110z m340 -180 c12 -39 19 -77 17 -84 -5 -11
-156 -59 -164 -51 -9 8 -44 148 -40 159 4 12 147 58 159 50 4 -2 17 -36 28
-74z m-344 -99 c12 -41 20 -78 17 -82 -4 -7 -69 -28 -135 -43 -26 -7 -27 -4
-53 75 -14 46 -24 84 -23 85 10 9 136 44 153 42 15 -2 24 -18 41 -77z m-352
-65 c35 -119 38 -111 -44 -135 -39 -12 -79 -20 -88 -18 -11 2 -22 27 -36 80
-11 42 -17 80 -14 83 6 7 132 42 155 44 6 1 19 -24 27 -54z m-338 -124 c17
-60 20 -83 11 -86 -55 -19 -158 -42 -161 -36 -13 21 -45 156 -38 162 9 10 144
48 156 45 6 -1 20 -39 32 -85z m-356 -53 c6 -24 16 -60 21 -82 6 -21 9 -39 7
-41 -5 -6 -162 -44 -166 -41 -9 9 -43 149 -39 160 5 13 101 43 144 45 18 1 24
-7 33 -41z m1520 -968 l0 -421 -25 -24 -24 -25 -750 0 -750 0 -28 24 -28 24
-3 421 -4 421 806 0 806 0 0 -420z"/>
</g>
</svg>
